<svg width="205" height="42" viewBox="0 0 205 42" fill="none" xmlns="http://www.w3.org/2000/svg">
<path d="M64.1689 17.054L61.7929 17.802C61.6902 17.2007 61.3895 16.6507 60.8909 16.152C60.3922 15.6533 59.6735 15.404 58.7349 15.404C57.9575 15.404 57.3122 15.624 56.7989 16.064C56.3002 16.504 56.0509 17.032 56.0509 17.648C56.0509 18.7187 56.6595 19.386 57.8769 19.65L60.1209 20.112C61.4702 20.376 62.5115 20.9113 63.2449 21.718C63.9782 22.5247 64.3449 23.4853 64.3449 24.6C64.3449 25.8907 63.8462 27.0053 62.8489 27.944C61.8662 28.868 60.5242 29.33 58.8229 29.33C56.9895 29.33 55.5595 28.8533 54.5329 27.9C53.5062 26.932 52.9269 25.81 52.7949 24.534L55.2589 23.83C55.3469 24.71 55.6989 25.4507 56.3149 26.052C56.9309 26.6533 57.7669 26.954 58.8229 26.954C59.7322 26.954 60.4289 26.756 60.9129 26.36C61.4115 25.9493 61.6609 25.4287 61.6609 24.798C61.6609 24.2847 61.4775 23.8447 61.1109 23.478C60.7442 23.0967 60.2309 22.8327 59.5709 22.686L57.3709 22.224C56.1535 21.9747 55.1855 21.4687 54.4669 20.706C53.7629 19.9433 53.4109 18.99 53.4109 17.846C53.4109 16.5407 53.9315 15.4187 54.9729 14.48C56.0142 13.5413 57.2609 13.072 58.7129 13.072C60.3702 13.072 61.6389 13.4753 62.5189 14.282C63.3989 15.074 63.9489 15.998 64.1689 17.054ZM76.7914 18.286L72.3914 22.818L76.8794 29H73.7554L70.6094 24.622L69.2894 26.008V29H66.7594V13.072H69.2894V22.62L73.4034 18.286H76.7914ZM79.9925 22.466H85.2505C85.2212 21.7913 84.9792 21.2267 84.5245 20.772C84.0845 20.3173 83.4465 20.09 82.6105 20.09C81.8479 20.09 81.2319 20.332 80.7625 20.816C80.2932 21.2853 80.0365 21.8353 79.9925 22.466ZM85.5365 25.26L87.6925 25.942C87.3845 26.9247 86.8052 27.7387 85.9545 28.384C85.1185 29.0147 84.0845 29.33 82.8525 29.33C81.3272 29.33 80.0292 28.8093 78.9585 27.768C77.9025 26.7267 77.3745 25.3333 77.3745 23.588C77.3745 21.9453 77.8879 20.596 78.9145 19.54C79.9559 18.484 81.1805 17.956 82.5885 17.956C84.2312 17.956 85.5145 18.462 86.4385 19.474C87.3625 20.4713 87.8245 21.8207 87.8245 23.522C87.8245 23.9767 87.8025 24.248 87.7585 24.336H79.9265C79.9559 25.1427 80.2492 25.81 80.8065 26.338C81.3785 26.866 82.0605 27.13 82.8525 27.13C84.2312 27.13 85.1259 26.5067 85.5365 25.26ZM93.4973 15.008V18.286H95.7193V20.552H93.4973V25.524C93.4973 25.9933 93.6073 26.338 93.8273 26.558C94.0473 26.7633 94.3919 26.866 94.8613 26.866C95.1546 26.866 95.4479 26.8367 95.7413 26.778V28.89C95.3599 29.0513 94.8393 29.132 94.1793 29.132C93.1819 29.132 92.3973 28.8533 91.8253 28.296C91.2533 27.724 90.9673 26.9393 90.9673 25.942V20.552H88.9873V18.286H89.5373C90.0799 18.286 90.4906 18.132 90.7693 17.824C91.0479 17.516 91.1873 17.1127 91.1873 16.614V15.008H93.4973ZM102.898 20.31C102.077 20.31 101.38 20.6107 100.808 21.212C100.236 21.7987 99.95 22.6053 99.95 23.632C99.95 24.6733 100.236 25.4947 100.808 26.096C101.395 26.6973 102.106 26.998 102.942 26.998C103.69 26.998 104.284 26.8 104.724 26.404C105.179 25.9933 105.479 25.5313 105.626 25.018L107.87 25.832C107.577 26.7853 107.005 27.6067 106.154 28.296C105.318 28.9853 104.247 29.33 102.942 29.33C101.373 29.33 100.053 28.7873 98.982 27.702C97.926 26.6167 97.398 25.26 97.398 23.632C97.398 21.9893 97.9187 20.6327 98.96 19.562C100.016 18.4913 101.321 17.956 102.876 17.956C104.211 17.956 105.296 18.3007 106.132 18.99C106.983 19.6793 107.533 20.508 107.782 21.476L105.494 22.312C105.347 21.7547 105.061 21.2853 104.636 20.904C104.225 20.508 103.646 20.31 102.898 20.31ZM112.688 22.708V29H110.136V13.072H112.688V19.32C113.378 18.4253 114.397 17.978 115.746 17.978C117.008 17.978 117.976 18.374 118.65 19.166C119.325 19.958 119.662 20.9773 119.662 22.224V29H117.11V22.664C117.11 21.9453 116.934 21.3733 116.582 20.948C116.23 20.508 115.673 20.288 114.91 20.288C114.236 20.288 113.7 20.5153 113.304 20.97C112.923 21.4247 112.718 22.004 112.688 22.708ZM128.446 13.402H133.814C135.281 13.402 136.44 13.7907 137.29 14.568C138.141 15.3453 138.566 16.3573 138.566 17.604C138.566 18.4107 138.354 19.1147 137.928 19.716C137.503 20.3027 136.946 20.7207 136.256 20.97C137.092 21.19 137.767 21.6373 138.28 22.312C138.794 22.9867 139.05 23.7787 139.05 24.688C139.05 25.9493 138.603 26.9833 137.708 27.79C136.814 28.5967 135.648 29 134.21 29H128.446V13.402ZM131.064 20.002H133.462C134.225 20.002 134.826 19.804 135.266 19.408C135.706 19.012 135.926 18.484 135.926 17.824C135.926 17.1493 135.699 16.6213 135.244 16.24C134.804 15.844 134.188 15.646 133.396 15.646H131.064V20.002ZM131.064 26.756H133.748C134.54 26.756 135.171 26.558 135.64 26.162C136.124 25.7513 136.366 25.2013 136.366 24.512C136.366 23.8227 136.139 23.2727 135.684 22.862C135.244 22.4367 134.628 22.224 133.836 22.224H131.064V26.756ZM147.795 18.22V20.816C147.502 20.772 147.223 20.75 146.959 20.75C145.038 20.75 144.077 21.7987 144.077 23.896V29H141.525V18.286H144.011V20.002C144.26 19.43 144.664 18.9827 145.221 18.66C145.778 18.3227 146.409 18.154 147.113 18.154C147.348 18.154 147.575 18.176 147.795 18.22ZM149.287 26.096C149.287 25.1867 149.58 24.4607 150.167 23.918C150.768 23.3607 151.553 23.0087 152.521 22.862L155.271 22.444C155.799 22.3707 156.063 22.114 156.063 21.674C156.063 21.19 155.894 20.8013 155.557 20.508C155.22 20.2 154.714 20.046 154.039 20.046C153.394 20.046 152.88 20.2293 152.499 20.596C152.118 20.948 151.898 21.41 151.839 21.982L149.507 21.454C149.61 20.486 150.072 19.6647 150.893 18.99C151.714 18.3007 152.756 17.956 154.017 17.956C155.572 17.956 156.716 18.33 157.449 19.078C158.197 19.826 158.571 20.7867 158.571 21.96V27.284C158.571 27.988 158.615 28.56 158.703 29H156.327C156.254 28.78 156.217 28.3253 156.217 27.636C155.513 28.7653 154.413 29.33 152.917 29.33C151.832 29.33 150.952 29.0147 150.277 28.384C149.617 27.7387 149.287 26.976 149.287 26.096ZM153.401 27.328C154.193 27.328 154.831 27.1153 155.315 26.69C155.814 26.25 156.063 25.5387 156.063 24.556V24.072L153.269 24.49C152.316 24.6513 151.839 25.1353 151.839 25.942C151.839 26.3233 151.978 26.6533 152.257 26.932C152.536 27.196 152.917 27.328 153.401 27.328ZM164.208 22.708V29H161.656V13.072H164.208V19.32C164.897 18.4253 165.917 17.978 167.266 17.978C168.527 17.978 169.495 18.374 170.17 19.166C170.845 19.958 171.182 20.9773 171.182 22.224V29H168.63V22.664C168.63 21.9453 168.454 21.3733 168.102 20.948C167.75 20.508 167.193 20.288 166.43 20.288C165.755 20.288 165.22 20.5153 164.824 20.97C164.443 21.4247 164.237 22.004 164.208 22.708ZM176.819 29H174.289V18.286H176.731V19.65C177.024 19.122 177.464 18.7113 178.051 18.418C178.652 18.1247 179.268 17.978 179.899 17.978C180.617 17.978 181.263 18.1393 181.835 18.462C182.407 18.7847 182.832 19.254 183.111 19.87C183.859 18.6087 185.017 17.978 186.587 17.978C187.643 17.978 188.537 18.3227 189.271 19.012C190.004 19.7013 190.371 20.7133 190.371 22.048V29H187.907V22.466C187.907 21.806 187.731 21.278 187.379 20.882C187.041 20.4713 186.528 20.266 185.839 20.266C185.179 20.266 184.643 20.4933 184.233 20.948C183.822 21.4027 183.617 21.9673 183.617 22.642V29H181.109V22.466C181.109 21.806 180.933 21.278 180.581 20.882C180.243 20.4713 179.73 20.266 179.041 20.266C178.366 20.266 177.823 20.4933 177.413 20.948C177.017 21.388 176.819 21.9527 176.819 22.642V29ZM192.836 26.096C192.836 25.1867 193.129 24.4607 193.716 23.918C194.317 23.3607 195.102 23.0087 196.07 22.862L198.82 22.444C199.348 22.3707 199.612 22.114 199.612 21.674C199.612 21.19 199.443 20.8013 199.106 20.508C198.768 20.2 198.262 20.046 197.588 20.046C196.942 20.046 196.429 20.2293 196.048 20.596C195.666 20.948 195.446 21.41 195.388 21.982L193.056 21.454C193.158 20.486 193.62 19.6647 194.442 18.99C195.263 18.3007 196.304 17.956 197.566 17.956C199.12 17.956 200.264 18.33 200.998 19.078C201.746 19.826 202.12 20.7867 202.12 21.96V27.284C202.12 27.988 202.164 28.56 202.252 29H199.876C199.802 28.78 199.766 28.3253 199.766 27.636C199.062 28.7653 197.962 29.33 196.466 29.33C195.38 29.33 194.5 29.0147 193.826 28.384C193.166 27.7387 192.836 26.976 192.836 26.096ZM196.95 27.328C197.742 27.328 198.38 27.1153 198.864 26.69C199.362 26.25 199.612 25.5387 199.612 24.556V24.072L196.818 24.49C195.864 24.6513 195.388 25.1353 195.388 25.942C195.388 26.3233 195.527 26.6533 195.806 26.932C196.084 27.196 196.466 27.328 196.95 27.328Z" fill="white"/>
<g clip-path="url(#clip0)">
<path fill-rule="evenodd" clip-rule="evenodd" d="M10.5371 16.3133L3.09914 23.648C-1.03305 19.6191 -1.03305 12.9043 3.09914 8.87542C7.23132 4.84654 13.9461 4.84654 18.0783 8.87542L10.5371 16.3133Z" fill="white"/>
<path fill-rule="evenodd" clip-rule="evenodd" d="M7.54123 23.3566L0 30.7946C4.13218 34.8234 10.9503 34.8234 15.0825 30.7946C19.2146 26.7657 19.2146 20.0509 15.0825 15.9187L7.54123 23.3566Z" fill="white"/>
<path fill-rule="evenodd" clip-rule="evenodd" d="M29.6094 23.3709V33.5981C35.3944 33.5981 40.1464 28.9494 40.1464 23.3709C40.1464 17.7925 35.3944 13.1438 29.6094 13.1438V23.3709Z" fill="white"/>
<path fill-rule="evenodd" clip-rule="evenodd" d="M22.7266 33.7905H26.6521V4.76196H22.7266V33.7905Z" fill="white"/>
</g>
<defs>
<clipPath id="clip0">
<rect width="40.0822" height="29.0286" fill="white" transform="translate(0 4.76196)"/>
</clipPath>
</defs>
</svg>
